nColumns=19
nRows=78
DataType=double
version=3
OpenSimVersion=4.1
endheader
time	ground_force_calcn_r_vx	ground_force_calcn_r_vy	ground_force_calcn_r_vz	ground_force_calcn_r_px	ground_force_calcn_r_py	ground_force_calcn_r_pz	ground_force_calcn_r_mx	ground_force_calcn_r_my	ground_force_calcn_r_mz	ground_force_calcn_l_vx	ground_force_calcn_l_vy	ground_force_calcn_l_vz	ground_force_calcn_l_px	ground_force_calcn_l_py	ground_force_calcn_l_pz	ground_force_calcn_l_mx	ground_force_calcn_l_my	ground_force_calcn_l_mz
1.35	-251.862	1379.07	26.7145	0.94737	0	-0.335897	0.75233	-4.11938	-0.079798	0	0	0	0	0	0	0	0	0
1.35833	-288.863	1429.2	18.1822	0.924093	0	-0.336684	0.910191	-4.50332	-0.0572912	0	0	0	0	0	0	0	0	0
1.36667	-299.302	1502.3	1.36315	0.89571	0	-0.337486	0.783562	-3.93296	-0.00356866	0	0	0	0	0	0	0	0	0
1.375	-270.042	1609.77	-8.529	0.86401	0	-0.336252	0.437899	-2.61039	0.0138306	0	0	0	0	0	0	0	0	0
1.38333	-213.948	1714.09	-8.08717	0.831608	0	-0.33358	0.0984773	-0.788972	0.00372241	0	0	0	0	0	0	0	0	0
1.39167	-149.513	1771.66	-6.08606	0.799805	0	-0.331366	-0.103755	1.22945	-0.00422345	0	0	0	0	0	0	0	0	0
1.4	-88.218	1764.11	-9.35631	0.768276	0	-0.330332	-0.156609	3.13173	-0.0166097	0	0	0	0	0	0	0	0	0
1.40833	-30.3645	1701.15	-14.7562	0.735823	0	-0.329588	-0.0824904	4.62146	-0.0400878	0	0	0	0	0	0	0	0	0
1.41667	27.3987	1600.47	-15.297	0.702178	0	-0.328172	0.0933959	5.45565	-0.0521442	0	0	0	0	0	0	0	0	0
1.425	86.4991	1470.82	-8.71707	0.668104	0	-0.326287	0.32396	5.50858	-0.0326475	0	0	0	0	0	0	0	0	0
1.43333	141.304	1314.69	2.05996	0.634413	0	-0.324841	0.518383	4.82304	0.0075571	0	0	0	0	0	0	0	0	0
1.44167	181.994	1134.75	13.4395	0.60151	0	-0.324283	0.578965	3.60992	0.0427542	0	0	0	0	0	0	0	0	0
1.45	203.289	936.974	23.3131	0.569577	0	-0.324169	0.472605	2.17827	0.0541981	0	0	0	0	0	0	0	0	0
1.45833	204.291	730.245	30.1716	0.53797	0	-0.323785	0.235	0.840016	0.034707	0	0	0	0	0	0	0	0	0
1.46667	187.452	527.87	32.4474	0.505713	0	-0.322641	-0.0599791	-0.168903	-0.0103822	0	0	0	0	0	0	0	0	0
1.475	155.536	346.661	29.3242	0.474785	0	-0.320399	-0.331427	-0.738687	-0.0624859	0	0	0	0	0	0	0	0	0
1.48333	112.841	202.482	21.9223	0.451387	0	-0.316386	-0.508012	-0.911573	-0.0986943	0	0	0	0	0	0	0	0	0
1.49167	69.0569	103.907	13.332	0.445615	0	-0.308299	-0.563173	-0.847385	-0.108726	0	0	0	0	0	0	0	0	0
1.5	35.4943	48.1936	6.8488	0.47845	0	-0.28517	-0.533591	-0.7245	-0.102959	0	0	0	0	0	0	0	0	0
1.50833	16.4294	23.7497	3.70396	0.590098	0	-0.217464	-0.471253	-0.681225	-0.106243	0	0	0	0	0	0	0	0	0
1.51667	6.94042	14.8112	2.75439	0.689453	0	-0.11626	-0.367014	-0.783226	-0.145654	0	0	0	0	0	0	0	0	0
1.525	1.59583	10.0041	2.4412	0.565094	0	-0.0211059	-0.149855	-0.939425	-0.229239	0	0	0	0	0	0	0	0	0
1.53333	0	0	0	0	0	0	0	0	0	0	0	0	0	0	0	0	0	0
1.54167	0	0	0	0	0	0	0	0	0	0	0	0	0	0	0	0	0	0
1.55	0	0	0	0	0	0	0	0	0	0	0	0	0	0	0	0	0	0
1.55833	0	0	0	0	0	0	0	0	0	0	0	0	0	0	0	0	0	0
1.56667	0	0	0	0	0	0	0	0	0	0	0	0	0	0	0	0	0	0
1.575	0	0	0	0	0	0	0	0	0	0	0	0	0	0	0	0	0	0
1.58333	0	0	0	0	0	0	0	0	0	0	0	0	0	0	0	0	0	0
1.59167	0	0	0	0	0	0	0	0	0	-0.278286	11.2763	0.27023	0.508993	0	-0.14069	0.0362709	-1.46972	-0.035221
1.6	0	0	0	0	0	0	0	0	0	-5.52021	19.7194	-2.38302	0.747672	0	-0.239186	0.395963	-1.41447	0.170934
1.60833	0	0	0	0	0	0	0	0	0	-18.1035	53.2292	-6.49834	0.916066	0	-0.338633	0.485573	-1.42772	0.174299
1.61667	0	0	0	0	0	0	0	0	0	-42.1474	151.004	-11.0817	0.953553	0	-0.371435	0.418245	-1.49847	0.109967
1.625	0	0	0	0	0	0	0	0	0	-76.8683	357.075	-14.0364	0.959654	0	-0.378709	0.306806	-1.4252	0.0560239
1.63333	0	0	0	0	0	0	0	0	0	-113.351	664.855	-13.6665	0.957394	0	-0.378053	0.188852	-1.1077	0.0227694
1.64167	0	0	0	0	0	0	0	0	0	-146.47	972.709	-12.1979	0.949698	0	-0.374724	0.0781655	-0.519098	0.00650958
1.65	0	0	0	0	0	0	0	0	0	-179.01	1166.55	-16.3254	0.937529	0	-0.372614	-0.0362483	0.236219	-0.00330577
1.65833	0	0	0	0	0	0	0	0	0	-215.301	1250.36	-28.9423	0.920179	0	-0.374899	-0.15403	0.894526	-0.0207058
1.66667	0	0	0	0	0	0	0	0	0	-250.377	1317.31	-40.5784	0.896952	0	-0.380192	-0.212619	1.11866	-0.034459
1.675	0	0	0	0	0	0	0	0	0	-264.092	1432.99	-36.9054	0.869322	0	-0.38284	-0.124797	0.677162	-0.0174397
1.68333	0	0	0	0	0	0	0	0	0	-243.668	1583.47	-16.5001	0.838813	0	-0.381746	0.067533	-0.438862	0.00457304
1.69167	0	0	0	0	0	0	0	0	0	-195.93	1708.87	5.88491	0.806674	0	-0.381008	0.226358	-1.97426	-0.00679882
1.7	0	0	0	0	0	0	0	0	0	-135.527	1767.58	16.0815	0.773468	0	-0.38298	0.26977	-3.51841	-0.0320105
1.70833	0	0	0	0	0	0	0	0	0	-70.6223	1761.75	14.6999	0.739469	0	-0.386407	0.189174	-4.71915	-0.0393763
1.71667	0	0	0	0	0	0	0	0	0	-2.30571	1715.57	11.8085	0.705283	0	-0.388804	0.0072402	-5.38711	-0.03708
1.725	0	0	0	0	0	0	0	0	0	65.9823	1640	12.8191	0.671834	0	-0.389473	-0.220048	-5.46934	-0.042751
1.73333	0	0	0	0	0	0	0	0	0	128.778	1528.15	14.4223	0.639251	0	-0.389512	-0.420975	-4.99552	-0.0471465
1.74167	0	0	0	0	0	0	0	0	0	181.716	1374.11	11.6258	0.606123	0	-0.389883	-0.536415	-4.05629	-0.0343188
1.75	0	0	0	0	0	0	0	0	0	221.438	1183.08	3.60402	0.571813	0	-0.390378	-0.526118	-2.81091	-0.00856284
1.75833	0	0	0	0	0	0	0	0	0	243.841	969.22	-6.97288	0.538317	0	-0.390038	-0.374293	-1.48774	0.0107033
1.76667	0	0	0	0	0	0	0	0	0	244.878	748.167	-16.8406	0.508357	0	-0.388229	-0.112532	-0.343815	0.00773897
1.775	0	0	0	0	0	0	0	0	0	224.091	535.262	-23.756	0.483485	0	-0.384861	0.17135	0.409286	-0.0181649
1.78333	0	0	0	0	0	0	0	0	0	184.076	347.244	-26.672	0.463995	0	-0.380364	0.358042	0.675417	-0.0518792
1.79167	0	0	0	0	0	0	0	0	0	130.241	200.105	-25.2877	0.448209	0	-0.375422	0.339702	0.521926	-0.0659567
1.8	0	0	0	0	0	0	0	0	0	75.7451	101.386	-20.0571	0.429049	0	-0.368824	0.097327	0.130274	-0.025772
1.80833	0	0	0	0	0	0	0	0	0	36.2956	46.9791	-12.7867	0.4064	0	-0.347728	-0.275881	-0.357085	0.0971906
1.81667	0	0	0	0	0	0	0	0	0	15.6755	22.9958	-6.18341	0.434263	0	-0.288812	-0.649004	-0.952085	0.256008
1.825	0	0	0	0	0	0	0	0	0	6.28002	12.9418	-1.99045	0.559058	0	-0.204308	-0.852836	-1.75752	0.270306
1.83333	0	0	0	0	0	0	0	0	0	0	0	0	0	0	0	0	0	0
1.84167	0	0	0	0	0	0	0	0	0	0	0	0	0	0	0	0	0	0
1.85	0	0	0	0	0	0	0	0	0	0	0	0	0	0	0	0	0	0
1.85833	0	0	0	0	0	0	0	0	0	0	0	0	0	0	0	0	0	0
1.86667	0	0	0	0	0	0	0	0	0	0	0	0	0	0	0	0	0	0
1.875	0	0	0	0	0	0	0	0	0	0	0	0	0	0	0	0	0	0
1.88333	0	0	0	0	0	0	0	0	0	0	0	0	0	0	0	0	0	0
1.89167	0	0	0	0	0	0	0	0	0	0	0	0	0	0	0	0	0	0
1.9	0.962391	9.95869	0.843849	0.774509	0	-0.03728	-0.0399862	-0.413772	-0.0350609	0	0	0	0	0	0	0	0	0
1.90833	-4.32911	16.4441	-1.29066	0.83193	0	-0.13856	0.029255	-0.111125	0.00872191	0	0	0	0	0	0	0	0	0
1.91667	-14.236	41.857	-4.74587	0.83321	0	-0.242202	0.0252739	-0.0743107	0.00842557	0	0	0	0	0	0	0	0	0
1.925	-32.1118	116.974	-9.54316	0.868854	0	-0.281145	0.104168	-0.379455	0.0309574	0	0	0	0	0	0	0	0	0
1.93333	-59.4704	284.022	-14.6869	0.895731	0	-0.293532	0.226831	-1.08331	0.0560186	0	0	0	0	0	0	0	0	0
1.94167	-90.0439	558.035	-17.4342	0.903297	0	-0.297741	0.341931	-2.11907	0.0662042	0	0	0	0	0	0	0	0	0
1.95	-118.236	871.387	-15.3218	0.898221	0	-0.298628	0.443513	-3.26865	0.0574733	0	0	0	0	0	0	0	0	0
1.95833	-148.082	1113.4	-10.4659	0.88587	0	-0.298195	0.560723	-4.21597	0.0396298	0	0	0	0	0	0	0	0	0
1.96667	-185.114	1254.82	-9.60484	0.867925	0	-0.297935	0.687598	-4.66099	0.0356769	0	0	0	0	0	0	0	0	0
1.975	-217.297	1354.54	-16.812	0.844542	0	-0.298554	0.71581	-4.46206	0.0553813	0	0	0	0	0	0	0	0	0
1.98333	-220.662	1466.13	-28.2731	0.816421	0	-0.299124	0.553947	-3.68056	0.0709765	0	0	0	0	0	0	0	0	0
1.99167	-188.684	1591.62	-37.1022	0.785077	0	-0.298695	0.294876	-2.48738	0.0579833	0	0	0	0	0	0	0	0	0
